<svg xmlns="http://www.w3.org/2000/svg" width="1440" height="1800" viewBox="0 0 1440 1800"><!-- Nahtlos vertikal kachelbar. Erzeugt von scripts/wellen-bauen.py, nicht von Hand bearbeiten. --><path d="M1180 0L1196 15L1213 30L1229 45L1244 60L1260 75L1274 90L1289 105L1302 120L1315 135L1328 150L1339 165L1350 180L1359 195L1368 210L1375 225L1382 240L1387 255L1392 270L1395 285L1397 300L1398 315L1399 330L1398 345L1396 360L1394 375L1391 390L1386 405L1382 420L1376 435L1370 450L1363 465L1356 480L1349 495L1341 510L1333 525L1325 540L1317 555L1308 570L1300 585L1292 600L1284 615L1276 630L1268 645L1261 660L1254 675L1247 690L1240 705L1234 720L1228 735L1222 750L1217 765L1212 780L1207 795L1203 810L1199 825L1195 840L1191 855L1187 870L1184 885L1180 900L1176 915L1173 930L1169 945L1165 960L1161 975L1157 990L1153 1005L1148 1020L1143 1035L1138 1050L1132 1065L1126 1080L1120 1095L1113 1110L1106 1125L1099 1140L1092 1155L1084 1170L1076 1185L1068 1200L1060 1215L1052 1230L1043 1245L1035 1260L1027 1275L1019 1290L1011 1305L1004 1320L997 1335L990 1350L984 1365L978 1380L974 1395L969 1410L966 1425L964 1440L962 1455L961 1470L962 1485L963 1500L965 1515L968 1530L973 1545L978 1560L985 1575L992 1590L1001 1605L1010 1620L1021 1635L1032 1650L1045 1665L1058 1680L1071 1695L1086 1710L1100 1725L1116 1740L1131 1755L1147 1770L1164 1785L1180 1800L1800 1800L1784 1785L1767 1770L1751 1755L1736 1740L1720 1725L1706 1710L1691 1695L1678 1680L1665 1665L1652 1650L1641 1635L1630 1620L1621 1605L1612 1590L1605 1575L1598 1560L1593 1545L1588 1530L1585 1515L1583 1500L1582 1485L1581 1470L1582 1455L1584 1440L1586 1425L1589 1410L1594 1395L1598 1380L1604 1365L1610 1350L1617 1335L1624 1320L1631 1305L1639 1290L1647 1275L1655 1260L1663 1245L1672 1230L1680 1215L1688 1200L1696 1185L1704 1170L1712 1155L1719 1140L1726 1125L1733 1110L1740 1095L1746 1080L1752 1065L1758 1050L1763 1035L1768 1020L1773 1005L1777 990L1781 975L1785 960L1789 945L1793 930L1796 915L1800 900L1804 885L1807 870L1811 855L1815 840L1819 825L1823 810L1827 795L1832 780L1837 765L1842 750L1848 735L1854 720L1860 705L1867 690L1874 675L1881 660L1888 645L1896 630L1904 615L1912 600L1920 585L1928 570L1937 555L1945 540L1953 525L1961 510L1969 495L1976 480L1983 465L1990 450L1996 435L2002 420L2006 405L2011 390L2014 375L2016 360L2018 345L2019 330L2018 315L2017 300L2015 285L2012 270L2007 255L2002 240L1995 225L1988 210L1979 195L1970 180L1959 165L1948 150L1935 135L1922 120L1909 105L1894 90L1880 75L1864 60L1849 45L1833 30L1816 15L1800 0Z" fill="#009964" fill-opacity="0.055"/><path d="M1148 0L1135 15L1121 30L1108 45L1095 60L1082 75L1069 90L1056 105L1044 120L1032 135L1021 150L1010 165L999 180L989 195L980 210L971 225L963 240L956 255L949 270L942 285L936 300L930 315L925 330L921 345L916 360L912 375L908 390L905 405L901 420L898 435L894 450L891 465L888 480L884 495L880 510L876 525L872 540L868 555L863 570L859 585L853 600L848 615L842 630L837 645L831 660L824 675L818 690L812 705L805 720L799 735L793 750L787 765L781 780L775 795L770 810L765 825L761 840L757 855L754 870L752 885L751 900L750 915L751 930L752 945L755 960L758 975L763 990L769 1005L776 1020L784 1035L793 1050L803 1065L815 1080L827 1095L840 1110L855 1125L870 1140L886 1155L903 1170L921 1185L939 1200L957 1215L976 1230L995 1245L1014 1260L1034 1275L1053 1290L1072 1305L1091 1320L1109 1335L1127 1350L1144 1365L1160 1380L1176 1395L1190 1410L1203 1425L1216 1440L1227 1455L1237 1470L1246 1485L1253 1500L1259 1515L1264 1530L1267 1545L1269 1560L1269 1575L1269 1590L1266 1605L1263 1620L1258 1635L1253 1650L1246 1665L1238 1680L1229 1695L1219 1710L1209 1725L1198 1740L1186 1755L1174 1770L1161 1785L1148 1800L1608 1800L1621 1785L1634 1770L1646 1755L1658 1740L1669 1725L1679 1710L1689 1695L1698 1680L1706 1665L1713 1650L1718 1635L1723 1620L1726 1605L1729 1590L1729 1575L1729 1560L1727 1545L1724 1530L1719 1515L1713 1500L1706 1485L1697 1470L1687 1455L1676 1440L1663 1425L1650 1410L1636 1395L1620 1380L1604 1365L1587 1350L1569 1335L1551 1320L1532 1305L1513 1290L1494 1275L1474 1260L1455 1245L1436 1230L1417 1215L1399 1200L1381 1185L1363 1170L1346 1155L1330 1140L1315 1125L1300 1110L1287 1095L1275 1080L1263 1065L1253 1050L1244 1035L1236 1020L1229 1005L1223 990L1218 975L1215 960L1212 945L1211 930L1210 915L1211 900L1212 885L1214 870L1217 855L1221 840L1225 825L1230 810L1235 795L1241 780L1247 765L1253 750L1259 735L1265 720L1272 705L1278 690L1284 675L1291 660L1297 645L1302 630L1308 615L1313 600L1319 585L1323 570L1328 555L1332 540L1336 525L1340 510L1344 495L1348 480L1351 465L1354 450L1358 435L1361 420L1365 405L1368 390L1372 375L1376 360L1381 345L1385 330L1390 315L1396 300L1402 285L1409 270L1416 255L1423 240L1431 225L1440 210L1449 195L1459 180L1470 165L1481 150L1492 135L1504 120L1516 105L1529 90L1542 75L1555 60L1568 45L1581 30L1595 15L1608 0Z" fill="#009964" fill-opacity="0.045"/><path d="M1240 0L1239 15L1239 30L1238 45L1237 60L1236 75L1235 90L1234 105L1233 120L1232 135L1231 150L1229 165L1228 180L1226 195L1224 210L1222 225L1220 240L1218 255L1216 270L1214 285L1213 300L1211 315L1209 330L1208 345L1207 360L1206 375L1206 390L1206 405L1206 420L1207 435L1208 450L1210 465L1212 480L1215 495L1219 510L1223 525L1228 540L1234 555L1240 570L1246 585L1254 600L1262 615L1270 630L1279 645L1289 660L1299 675L1310 690L1321 705L1332 720L1343 735L1355 750L1367 765L1379 780L1391 795L1402 810L1414 825L1425 840L1436 855L1447 870L1457 885L1467 900L1476 915L1485 930L1493 945L1500 960L1506 975L1512 990L1517 1005L1520 1020L1523 1035L1525 1050L1526 1065L1526 1080L1526 1095L1524 1110L1521 1125L1518 1140L1514 1155L1508 1170L1503 1185L1496 1200L1489 1215L1481 1230L1473 1245L1464 1260L1454 1275L1445 1290L1435 1305L1425 1320L1415 1335L1404 1350L1394 1365L1384 1380L1374 1395L1364 1410L1354 1425L1344 1440L1335 1455L1327 1470L1318 1485L1310 1500L1303 1515L1296 1530L1289 1545L1283 1560L1277 1575L1272 1590L1268 1605L1263 1620L1260 1635L1256 1650L1254 1665L1251 1680L1249 1695L1247 1710L1245 1725L1244 1740L1243 1755L1242 1770L1241 1785L1240 1800L1620 1800L1621 1785L1622 1770L1623 1755L1624 1740L1625 1725L1627 1710L1629 1695L1631 1680L1634 1665L1636 1650L1640 1635L1643 1620L1648 1605L1652 1590L1657 1575L1663 1560L1669 1545L1676 1530L1683 1515L1690 1500L1698 1485L1707 1470L1715 1455L1724 1440L1734 1425L1744 1410L1754 1395L1764 1380L1774 1365L1784 1350L1795 1335L1805 1320L1815 1305L1825 1290L1834 1275L1844 1260L1853 1245L1861 1230L1869 1215L1876 1200L1883 1185L1888 1170L1894 1155L1898 1140L1901 1125L1904 1110L1906 1095L1906 1080L1906 1065L1905 1050L1903 1035L1900 1020L1897 1005L1892 990L1886 975L1880 960L1873 945L1865 930L1856 915L1847 900L1837 885L1827 870L1816 855L1805 840L1794 825L1782 810L1771 795L1759 780L1747 765L1735 750L1723 735L1712 720L1701 705L1690 690L1679 675L1669 660L1659 645L1650 630L1642 615L1634 600L1626 585L1620 570L1614 555L1608 540L1603 525L1599 510L1595 495L1592 480L1590 465L1588 450L1587 435L1586 420L1586 405L1586 390L1586 375L1587 360L1588 345L1589 330L1591 315L1593 300L1594 285L1596 270L1598 255L1600 240L1602 225L1604 210L1606 195L1608 180L1609 165L1611 150L1612 135L1613 120L1614 105L1615 90L1616 75L1617 60L1618 45L1619 30L1619 15L1620 0Z" fill="#12b981" fill-opacity="0.05"/><path d="M627 0L621 15L615 30L610 45L606 60L602 75L598 90L595 105L592 120L589 135L587 150L584 165L582 180L579 195L577 210L575 225L572 240L569 255L566 270L563 285L559 300L556 315L552 330L548 345L543 360L539 375L534 390L529 405L525 420L520 435L515 450L511 465L506 480L502 495L498 510L495 525L492 540L490 555L489 570L488 585L488 600L489 615L491 630L493 645L497 660L502 675L509 690L516 705L524 720L534 735L545 750L557 765L570 780L584 795L599 810L616 825L633 840L651 855L670 870L689 885L709 900L730 915L750 930L771 945L793 960L814 975L835 990L855 1005L876 1020L895 1035L914 1050L933 1065L950 1080L966 1095L982 1110L996 1125L1008 1140L1020 1155L1030 1170L1038 1185L1045 1200L1050 1215L1054 1230L1056 1245L1057 1260L1056 1275L1054 1290L1049 1305L1044 1320L1037 1335L1029 1350L1019 1365L1008 1380L996 1395L984 1410L970 1425L955 1440L940 1455L924 1470L908 1485L891 1500L875 1515L858 1530L841 1545L824 1560L807 1575L791 1590L775 1605L760 1620L745 1635L731 1650L717 1665L704 1680L692 1695L680 1710L669 1725L659 1740L650 1755L642 1770L634 1785L627 1800L927 1800L934 1785L942 1770L950 1755L959 1740L969 1725L980 1710L992 1695L1004 1680L1017 1665L1031 1650L1045 1635L1060 1620L1075 1605L1091 1590L1107 1575L1124 1560L1141 1545L1158 1530L1175 1515L1191 1500L1208 1485L1224 1470L1240 1455L1255 1440L1270 1425L1284 1410L1296 1395L1308 1380L1319 1365L1329 1350L1337 1335L1344 1320L1349 1305L1354 1290L1356 1275L1357 1260L1356 1245L1354 1230L1350 1215L1345 1200L1338 1185L1330 1170L1320 1155L1308 1140L1296 1125L1282 1110L1266 1095L1250 1080L1233 1065L1214 1050L1195 1035L1176 1020L1155 1005L1135 990L1114 975L1093 960L1071 945L1050 930L1030 915L1009 900L989 885L970 870L951 855L933 840L916 825L899 810L884 795L870 780L857 765L845 750L834 735L824 720L816 705L809 690L802 675L797 660L793 645L791 630L789 615L788 600L788 585L789 570L790 555L792 540L795 525L798 510L802 495L806 480L811 465L815 450L820 435L825 420L829 405L834 390L839 375L843 360L848 345L852 330L856 315L859 300L863 285L866 270L869 255L872 240L875 225L877 210L879 195L882 180L884 165L887 150L889 135L892 120L895 105L898 90L902 75L906 60L910 45L915 30L921 15L927 0Z" fill="#009964" fill-opacity="0.028"/><path d="M1723 0L1724 15L1723 30L1721 45L1718 60L1714 75L1709 90L1703 105L1696 120L1689 135L1681 150L1673 165L1664 180L1654 195L1644 210L1634 225L1624 240L1613 255L1603 270L1593 285L1582 300L1572 315L1562 330L1553 345L1543 360L1534 375L1526 390L1518 405L1510 420L1502 435L1495 450L1489 465L1483 480L1477 495L1472 510L1467 525L1462 540L1458 555L1454 570L1450 585L1446 600L1442 615L1439 630L1435 645L1432 660L1428 675L1425 690L1421 705L1417 720L1413 735L1408 750L1404 765L1399 780L1394 795L1388 810L1383 825L1377 840L1370 855L1364 870L1357 885L1351 900L1344 915L1337 930L1330 945L1323 960L1316 975L1309 990L1303 1005L1297 1020L1291 1035L1286 1050L1281 1065L1277 1080L1273 1095L1270 1110L1268 1125L1267 1140L1266 1155L1267 1170L1268 1185L1270 1200L1274 1215L1278 1230L1284 1245L1290 1260L1298 1275L1306 1290L1316 1305L1327 1320L1338 1335L1350 1350L1364 1365L1378 1380L1392 1395L1407 1410L1423 1425L1440 1440L1456 1455L1473 1470L1490 1485L1507 1500L1524 1515L1541 1530L1557 1545L1574 1560L1590 1575L1605 1590L1619 1605L1633 1620L1647 1635L1659 1650L1670 1665L1681 1680L1690 1695L1698 1710L1705 1725L1711 1740L1716 1755L1720 1770L1722 1785L1723 1800L2243 1800L2242 1785L2240 1770L2236 1755L2231 1740L2225 1725L2218 1710L2210 1695L2201 1680L2190 1665L2179 1650L2167 1635L2153 1620L2139 1605L2125 1590L2110 1575L2094 1560L2077 1545L2061 1530L2044 1515L2027 1500L2010 1485L1993 1470L1976 1455L1960 1440L1943 1425L1927 1410L1912 1395L1898 1380L1884 1365L1870 1350L1858 1335L1847 1320L1836 1305L1826 1290L1818 1275L1810 1260L1804 1245L1798 1230L1794 1215L1790 1200L1788 1185L1787 1170L1786 1155L1787 1140L1788 1125L1790 1110L1793 1095L1797 1080L1801 1065L1806 1050L1811 1035L1817 1020L1823 1005L1829 990L1836 975L1843 960L1850 945L1857 930L1864 915L1871 900L1877 885L1884 870L1890 855L1897 840L1903 825L1908 810L1914 795L1919 780L1924 765L1928 750L1933 735L1937 720L1941 705L1945 690L1948 675L1952 660L1955 645L1959 630L1962 615L1966 600L1970 585L1974 570L1978 555L1982 540L1987 525L1992 510L1997 495L2003 480L2009 465L2015 450L2022 435L2030 420L2038 405L2046 390L2054 375L2063 360L2073 345L2082 330L2092 315L2102 300L2113 285L2123 270L2133 255L2144 240L2154 225L2164 210L2174 195L2184 180L2193 165L2201 150L2209 135L2216 120L2223 105L2229 90L2234 75L2238 60L2241 45L2243 30L2244 15L2243 0Z" fill="#007a50" fill-opacity="0.035"/></svg>
